<mxfile host="app.diagrams.net" agent="Mozilla/5.0 (Windows NT 10.0; Win64; x64) AppleWebKit/537.36 (KHTML, like Gecko) Chrome/135.0.0.0 Safari/537.36" version="26.2.12">
  <diagram name="Page-1" id="e7e014a7-5840-1c2e-5031-d8a46d1fe8dd">
    <mxGraphModel dx="1228" dy="620" grid="0" gridSize="10" guides="1" tooltips="1" connect="1" arrows="1" fold="1" page="0" pageScale="1" pageWidth="1169" pageHeight="826" background="none" math="0" shadow="0">
      <root>
        <mxCell id="0" />
        <mxCell id="1" parent="0" />
        <mxCell id="2" value="使用者" style="swimlane;whiteSpace=wrap;fillColor=#f5f5f5;fontColor=#333333;strokeColor=#666666;fontSize=15;" parent="1" vertex="1">
          <mxGeometry x="114.5" y="128" width="450" height="400" as="geometry" />
        </mxCell>
        <mxCell id="5" value="" style="ellipse;shape=startState;fillColor=#000000;strokeColor=none;fontSize=15;" parent="2" vertex="1">
          <mxGeometry x="30" y="84" width="30" height="30" as="geometry" />
        </mxCell>
        <mxCell id="6" value="" style="edgeStyle=elbowEdgeStyle;elbow=horizontal;verticalAlign=bottom;endArrow=classic;endSize=8;strokeColor=#000000;endFill=1;rounded=0;entryX=0;entryY=0.5;entryDx=0;entryDy=0;fontSize=15;" parent="2" source="5" target="HMxSch9exDxj8cml_HmY-44" edge="1">
          <mxGeometry x="100" y="40" as="geometry">
            <mxPoint x="105.5" y="99" as="targetPoint" />
          </mxGeometry>
        </mxCell>
        <mxCell id="HMxSch9exDxj8cml_HmY-44" value="&lt;span style=&quot;text-wrap-mode: nowrap;&quot;&gt;點擊註冊頁面&lt;/span&gt;" style="rounded=1;whiteSpace=wrap;html=1;fillColor=#e1d5e7;strokeColor=#9673a6;fontSize=15;" vertex="1" parent="2">
          <mxGeometry x="95.5" y="69" width="120" height="60" as="geometry" />
        </mxCell>
        <mxCell id="HMxSch9exDxj8cml_HmY-46" value="&lt;span style=&quot;text-wrap-mode: nowrap;&quot;&gt;輸入註冊表單&lt;/span&gt;" style="rounded=1;whiteSpace=wrap;html=1;fillColor=#e1d5e7;strokeColor=#9673a6;fontSize=15;" vertex="1" parent="2">
          <mxGeometry x="265.5" y="69" width="120" height="60" as="geometry" />
        </mxCell>
        <mxCell id="9" value="" style="endArrow=classic;strokeColor=#000000;endFill=1;rounded=0;exitX=1;exitY=0.5;exitDx=0;exitDy=0;entryX=0;entryY=0.5;entryDx=0;entryDy=0;fontSize=15;" parent="2" source="HMxSch9exDxj8cml_HmY-44" target="HMxSch9exDxj8cml_HmY-46" edge="1">
          <mxGeometry relative="1" as="geometry">
            <mxPoint x="215.5" y="99" as="sourcePoint" />
            <mxPoint x="269.66666666666674" y="164" as="targetPoint" />
          </mxGeometry>
        </mxCell>
        <mxCell id="38" value="" style="ellipse;shape=endState;fillColor=#000000;strokeColor=#000000;fontSize=15;" parent="2" vertex="1">
          <mxGeometry x="30" y="327" width="30" height="30" as="geometry" />
        </mxCell>
        <mxCell id="39" value="" style="endArrow=classic;strokeColor=#000000;endFill=1;rounded=0;exitX=0;exitY=0.5;exitDx=0;exitDy=0;fontSize=15;" parent="2" source="HMxSch9exDxj8cml_HmY-51" target="38" edge="1">
          <mxGeometry relative="1" as="geometry">
            <mxPoint x="95.5" y="285" as="sourcePoint" />
          </mxGeometry>
        </mxCell>
        <mxCell id="HMxSch9exDxj8cml_HmY-51" value="&lt;span style=&quot;text-wrap-mode: nowrap;&quot;&gt;導向登入畫面&lt;/span&gt;" style="rounded=1;whiteSpace=wrap;html=1;fillColor=#e1d5e7;strokeColor=#9673a6;fontSize=15;" vertex="1" parent="2">
          <mxGeometry x="105.5" y="312" width="120" height="60" as="geometry" />
        </mxCell>
        <mxCell id="HMxSch9exDxj8cml_HmY-64" style="edgeStyle=orthogonalEdgeStyle;rounded=0;orthogonalLoop=1;jettySize=auto;html=1;exitX=0.5;exitY=0;exitDx=0;exitDy=0;entryX=0.5;entryY=1;entryDx=0;entryDy=0;fontSize=15;" edge="1" parent="2" source="HMxSch9exDxj8cml_HmY-62" target="HMxSch9exDxj8cml_HmY-46">
          <mxGeometry relative="1" as="geometry" />
        </mxCell>
        <mxCell id="HMxSch9exDxj8cml_HmY-62" value="&lt;span style=&quot;text-wrap-mode: nowrap;&quot;&gt;註冊失敗&lt;/span&gt;" style="rounded=1;whiteSpace=wrap;html=1;fillColor=#e1d5e7;strokeColor=#9673a6;fontSize=15;" vertex="1" parent="2">
          <mxGeometry x="265.5" y="182" width="120" height="60" as="geometry" />
        </mxCell>
        <mxCell id="HMxSch9exDxj8cml_HmY-68" style="edgeStyle=orthogonalEdgeStyle;rounded=0;orthogonalLoop=1;jettySize=auto;html=1;entryX=1;entryY=0.5;entryDx=0;entryDy=0;fontSize=15;" edge="1" parent="2" source="HMxSch9exDxj8cml_HmY-65" target="HMxSch9exDxj8cml_HmY-51">
          <mxGeometry relative="1" as="geometry" />
        </mxCell>
        <mxCell id="HMxSch9exDxj8cml_HmY-65" value="&lt;span style=&quot;text-wrap-mode: nowrap;&quot;&gt;註冊成功&lt;/span&gt;" style="rounded=1;whiteSpace=wrap;html=1;fillColor=#e1d5e7;strokeColor=#9673a6;fontSize=15;" vertex="1" parent="2">
          <mxGeometry x="265.5" y="312" width="120" height="60" as="geometry" />
        </mxCell>
        <mxCell id="3" value="伺服器" style="swimlane;whiteSpace=wrap;fillColor=#f5f5f5;fontColor=#333333;strokeColor=#666666;fontSize=15;" parent="1" vertex="1">
          <mxGeometry x="564.5" y="128" width="450" height="400" as="geometry" />
        </mxCell>
        <mxCell id="31" value="註冊帳號檢查事項：&#xa;1.欄位皆填寫&#xa;2.帳號是否重複&#xa;3.密碼安全性" style="shape=note;whiteSpace=wrap;size=17;align=left;fillColor=#e1d5e7;strokeColor=#9673a6;perimeterSpacing=0;spacingLeft=5;fontSize=15;" parent="3" vertex="1">
          <mxGeometry x="240.5" y="59" width="161.5" height="80" as="geometry" />
        </mxCell>
        <mxCell id="20" value="" style="endArrow=classic;strokeColor=#000000;endFill=1;rounded=0;entryX=0.5;entryY=0;entryDx=0;entryDy=0;exitX=0.5;exitY=1;exitDx=0;exitDy=0;fontSize=15;" parent="3" source="HMxSch9exDxj8cml_HmY-50" target="HMxSch9exDxj8cml_HmY-52" edge="1">
          <mxGeometry relative="1" as="geometry">
            <mxPoint x="124.54506437768237" y="142" as="sourcePoint" />
            <mxPoint x="80.95493562231763" y="325" as="targetPoint" />
          </mxGeometry>
        </mxCell>
        <mxCell id="HMxSch9exDxj8cml_HmY-50" value="&lt;span style=&quot;text-wrap-mode: nowrap;&quot;&gt;註冊認證&lt;/span&gt;" style="rounded=1;whiteSpace=wrap;html=1;fillColor=#e1d5e7;strokeColor=#9673a6;fontSize=15;" vertex="1" parent="3">
          <mxGeometry x="65" y="69" width="120" height="60" as="geometry" />
        </mxCell>
        <mxCell id="32" value="" style="endArrow=none;strokeColor=#000000;endFill=0;rounded=0;dashed=1;exitX=1;exitY=0.5;exitDx=0;exitDy=0;fontColor=default;fontSize=15;" parent="3" source="HMxSch9exDxj8cml_HmY-50" target="31" edge="1">
          <mxGeometry relative="1" as="geometry">
            <mxPoint x="185.5" y="99" as="sourcePoint" />
          </mxGeometry>
        </mxCell>
        <mxCell id="HMxSch9exDxj8cml_HmY-71" style="edgeStyle=orthogonalEdgeStyle;rounded=0;orthogonalLoop=1;jettySize=auto;html=1;entryX=0.5;entryY=0;entryDx=0;entryDy=0;fontSize=15;" edge="1" parent="3" source="HMxSch9exDxj8cml_HmY-52" target="HMxSch9exDxj8cml_HmY-56">
          <mxGeometry relative="1" as="geometry" />
        </mxCell>
        <mxCell id="HMxSch9exDxj8cml_HmY-52" value="" style="rhombus;whiteSpace=wrap;html=1;fillColor=#e1d5e7;strokeColor=#9673a6;fontSize=15;" vertex="1" parent="3">
          <mxGeometry x="111.25" y="195" width="27.5" height="34" as="geometry" />
        </mxCell>
        <mxCell id="HMxSch9exDxj8cml_HmY-53" value="[驗證成功]" style="text;html=1;align=center;verticalAlign=middle;resizable=0;points=[];autosize=1;strokeColor=none;fillColor=none;fontSize=15;rotation=0;" vertex="1" parent="3">
          <mxGeometry x="125.5" y="255" width="86" height="30" as="geometry" />
        </mxCell>
        <mxCell id="HMxSch9exDxj8cml_HmY-56" value="&lt;span style=&quot;text-wrap-mode: nowrap;&quot;&gt;成功新增使用者&lt;/span&gt;" style="rounded=1;whiteSpace=wrap;html=1;fillColor=#e1d5e7;strokeColor=#9673a6;fontSize=15;" vertex="1" parent="3">
          <mxGeometry x="65" y="312" width="120" height="60" as="geometry" />
        </mxCell>
        <mxCell id="HMxSch9exDxj8cml_HmY-58" value="[else]" style="text;html=1;align=center;verticalAlign=middle;resizable=0;points=[];autosize=1;strokeColor=none;fillColor=none;fontSize=15;" vertex="1" parent="3">
          <mxGeometry x="24.5" y="214" width="54" height="30" as="geometry" />
        </mxCell>
        <mxCell id="11" value="" style="endArrow=classic;strokeColor=#000000;endFill=1;rounded=0;exitX=1;exitY=0.5;exitDx=0;exitDy=0;entryX=0;entryY=0.5;entryDx=0;entryDy=0;fontSize=15;" parent="1" source="HMxSch9exDxj8cml_HmY-46" target="HMxSch9exDxj8cml_HmY-50" edge="1">
          <mxGeometry relative="1" as="geometry">
            <mxPoint x="510" y="296.375" as="sourcePoint" />
            <mxPoint x="640" y="227" as="targetPoint" />
          </mxGeometry>
        </mxCell>
        <mxCell id="HMxSch9exDxj8cml_HmY-66" style="edgeStyle=orthogonalEdgeStyle;rounded=0;orthogonalLoop=1;jettySize=auto;html=1;entryX=1;entryY=0.5;entryDx=0;entryDy=0;fontSize=15;" edge="1" parent="1" source="HMxSch9exDxj8cml_HmY-56" target="HMxSch9exDxj8cml_HmY-65">
          <mxGeometry relative="1" as="geometry" />
        </mxCell>
        <mxCell id="HMxSch9exDxj8cml_HmY-69" style="edgeStyle=orthogonalEdgeStyle;rounded=0;orthogonalLoop=1;jettySize=auto;html=1;entryX=1;entryY=0.5;entryDx=0;entryDy=0;fontSize=15;" edge="1" parent="1" source="HMxSch9exDxj8cml_HmY-52" target="HMxSch9exDxj8cml_HmY-62">
          <mxGeometry relative="1" as="geometry" />
        </mxCell>
      </root>
    </mxGraphModel>
  </diagram>
</mxfile>
